<svg width="1080" height="1080" viewBox="0 0 1080 1080" fill="none" xmlns="http://www.w3.org/2000/svg">
<rect x="5" y="5" width="1070" height="1070" rx="95" fill="url(#paint0_radial_77_11)" stroke="url(#paint1_angular_77_11)" stroke-width="10"/>
<g filter="url(#filter0_d_77_11)">
<circle cx="540" cy="534" r="375" fill="#8D472F"/>
</g>
<circle cx="540" cy="534" r="320" stroke="black" stroke-width="10"/>
<g filter="url(#filter1_f_77_11)">
<circle cx="540" cy="534" r="325" fill="url(#paint2_radial_77_11)"/>
<circle cx="540" cy="534" r="327.5" stroke="#4B2B21" stroke-width="5"/>
</g>
<g filter="url(#filter2_ii_77_11)">
<circle cx="540" cy="534" r="150" fill="#FF9774"/>
</g>
<path d="M63.9344 414.129C59.4343 409.059 52.9173 406.345 44.6445 406.031L57.6678 267.265L70.0103 372.175L72.9962 372.107L80.3651 268.942L92.5103 372.175L95.4952 372.119L103.5 271.849L111.505 372.119H114.495L122.306 274.282L130.407 406.03C119.829 406.44 112.74 410.929 108.295 416.919C103.682 423.136 102 430.85 102 437V437.074L102.007 437.147L136.443 786.496C114.666 810.986 94.8856 815.812 79.1126 812.311C63.2969 808.8 51.057 796.824 44.5332 786.618L70.9957 437.113L71 437.057V437C71 427.287 68.7014 419.501 63.9344 414.129Z" fill="url(#paint3_linear_77_11)" stroke="url(#paint4_angular_77_11)" stroke-width="3"/>
<path d="M969.992 543.178L970.02 542.903L969.948 542.635C946.193 454.8 944.847 388.856 952.754 342.152C960.666 295.415 977.819 268.059 990.941 257.195C993.474 255.209 996.015 254.462 998.474 254.502C1000.97 254.542 1003.48 255.396 1005.89 256.778C1010.58 259.461 1014.62 263.981 1017 267.482V543.027V543.076L1017 543.124L1033.96 802.957C1014.23 823.026 995.109 827.062 979.246 824.151C963.447 821.253 950.648 811.42 943.556 803.049L969.992 543.178Z" fill="url(#paint5_linear_77_11)" stroke="url(#paint6_angular_77_11)" stroke-width="3"/>
<g filter="url(#filter3_i_77_11)">
<circle cx="315" cy="465" r="75" fill="#FF9774"/>
</g>
<circle cx="315" cy="465" r="73.5" stroke="#2D2F2D" stroke-width="3"/>
<path d="M363.607 315.452L400.529 251.5L474.375 251.5L511.297 315.452L474.375 379.404L400.529 379.404L363.607 315.452Z" fill="url(#paint7_radial_77_11)" stroke="#2D2F2D" stroke-width="2"/>
<path d="M388.331 315.753L413.042 272.952L462.464 272.952L487.176 315.753L462.464 358.555L413.042 358.555L388.331 315.753Z" fill="#5D2110" stroke="#4F524F"/>
<path d="M399.952 250.452L412.952 272.452" stroke="black"/>
<path d="M474.952 250.452L462.952 272.452" stroke="black"/>
<path d="M512.452 315.452H487.452" stroke="black"/>
<path d="M474.952 380.452L462.952 358.952" stroke="black"/>
<path d="M399.952 380.452L412.952 358.952" stroke="black"/>
<path d="M362.452 315.452L387.952 315.952" stroke="black"/>
<path d="M568.607 315.452L605.529 251.5L679.375 251.5L716.297 315.452L679.375 379.404L605.529 379.404L568.607 315.452Z" fill="url(#paint8_radial_77_11)" stroke="#2D2F2D" stroke-width="2"/>
<path d="M593.331 315.753L618.042 272.952L667.464 272.952L692.176 315.753L667.464 358.555L618.042 358.555L593.331 315.753Z" fill="#5E2310" stroke="#4F524F"/>
<path d="M604.952 250.452L617.952 272.452" stroke="black"/>
<path d="M679.952 250.452L667.952 272.452" stroke="black"/>
<path d="M717.452 315.452H692.452" stroke="black"/>
<path d="M679.952 380.452L667.952 358.952" stroke="black"/>
<path d="M604.952 380.452L617.952 358.952" stroke="black"/>
<path d="M567.452 315.452L592.952 315.952" stroke="black"/>
<defs>
<filter id="filter0_d_77_11" x="149" y="153" width="770" height="770" filterUnits="userSpaceOnUse" color-interpolation-filters="sRGB">
<feFlood flood-opacity="0" result="BackgroundImageFix"/>
<feColorMatrix in="SourceAlpha" type="matrix" values="0 0 0 0 0 0 0 0 0 0 0 0 0 0 0 0 0 0 127 0" result="hardAlpha"/>
<feMorphology radius="2" operator="dilate" in="SourceAlpha" result="effect1_dropShadow_77_11"/>
<feOffset dx="-6" dy="4"/>
<feGaussianBlur stdDeviation="4"/>
<feComposite in2="hardAlpha" operator="out"/>
<feColorMatrix type="matrix" values="0 0 0 0 0 0 0 0 0 0 0 0 0 0 0 0 0 0 1 0"/>
<feBlend mode="normal" in2="BackgroundImageFix" result="effect1_dropShadow_77_11"/>
<feBlend mode="normal" in="SourceGraphic" in2="effect1_dropShadow_77_11" result="shape"/>
</filter>
<filter id="filter1_f_77_11" x="190" y="184" width="700" height="700" filterUnits="userSpaceOnUse" color-interpolation-filters="sRGB">
<feFlood flood-opacity="0" result="BackgroundImageFix"/>
<feBlend mode="normal" in="SourceGraphic" in2="BackgroundImageFix" result="shape"/>
<feGaussianBlur stdDeviation="10" result="effect1_foregroundBlur_77_11"/>
</filter>
<filter id="filter2_ii_77_11" x="379.86" y="380.88" width="313.26" height="310.92" filterUnits="userSpaceOnUse" color-interpolation-filters="sRGB">
<feFlood flood-opacity="0" result="BackgroundImageFix"/>
<feBlend mode="normal" in="SourceGraphic" in2="BackgroundImageFix" result="shape"/>
<feColorMatrix in="SourceAlpha" type="matrix" values="0 0 0 0 0 0 0 0 0 0 0 0 0 0 0 0 0 0 127 0" result="hardAlpha"/>
<feMorphology radius="2.34" operator="erode" in="SourceAlpha" result="effect1_innerShadow_77_11"/>
<feOffset dx="-11.7" dy="7.8"/>
<feGaussianBlur stdDeviation="3.9"/>
<feComposite in2="hardAlpha" operator="arithmetic" k2="-1" k3="1"/>
<feColorMatrix type="matrix" values="0 0 0 0 0.368627 0 0 0 0 0.137255 0 0 0 0 0.0627451 0 0 0 1 0"/>
<feBlend mode="normal" in2="shape" result="effect1_innerShadow_77_11"/>
<feColorMatrix in="SourceAlpha" type="matrix" values="0 0 0 0 0 0 0 0 0 0 0 0 0 0 0 0 0 0 127 0" result="hardAlpha"/>
<feOffset dx="7.8" dy="-7.8"/>
<feGaussianBlur stdDeviation="1.56"/>
<feComposite in2="hardAlpha" operator="arithmetic" k2="-1" k3="1"/>
<feColorMatrix type="matrix" values="0 0 0 0 0.654167 0 0 0 0 0.360662 0 0 0 0 0.260031 0 0 0 1 0"/>
<feBlend mode="normal" in2="effect1_innerShadow_77_11" result="effect2_innerShadow_77_11"/>
</filter>
<filter id="filter3_i_77_11" x="240" y="390" width="154" height="154" filterUnits="userSpaceOnUse" color-interpolation-filters="sRGB">
<feFlood flood-opacity="0" result="BackgroundImageFix"/>
<feBlend mode="normal" in="SourceGraphic" in2="BackgroundImageFix" result="shape"/>
<feColorMatrix in="SourceAlpha" type="matrix" values="0 0 0 0 0 0 0 0 0 0 0 0 0 0 0 0 0 0 127 0" result="hardAlpha"/>
<feOffset dx="20" dy="20"/>
<feGaussianBlur stdDeviation="2"/>
<feComposite in2="hardAlpha" operator="arithmetic" k2="-1" k3="1"/>
<feColorMatrix type="matrix" values="0 0 0 0 0 0 0 0 0 0 0 0 0 0 0 0 0 0 0.4 0"/>
<feBlend mode="normal" in2="shape" result="effect1_innerShadow_77_11"/>
</filter>
<radialGradient id="paint0_radial_77_11" cx="0" cy="0" r="1" gradientUnits="userSpaceOnUse" gradientTransform="translate(540 540) rotate(90) scale(447)">
<stop stop-color="#FF9674"/>
<stop offset="1" stop-color="#532719"/>
</radialGradient>
<radialGradient id="paint1_angular_77_11" cx="0" cy="0" r="1" gradientUnits="userSpaceOnUse" gradientTransform="translate(540 540) rotate(90) scale(540)">
<stop offset="0.117708"/>
<stop offset="0.497917" stop-color="#8D472F"/>
<stop offset="0.883333"/>
<stop offset="0.997917"/>
<stop offset="0.998587"/>
</radialGradient>
<radialGradient id="paint2_radial_77_11" cx="0" cy="0" r="1" gradientUnits="userSpaceOnUse" gradientTransform="translate(540 534) rotate(90) scale(301)">
<stop stop-color="#FF9E7E"/>
<stop offset="1" stop-color="#5A210E"/>
</radialGradient>
<linearGradient id="paint3_linear_77_11" x1="90" y1="514" x2="90" y2="723.5" gradientUnits="userSpaceOnUse">
<stop stop-color="#8D4730"/>
<stop offset="1" stop-color="#5D2210"/>
</linearGradient>
<radialGradient id="paint4_angular_77_11" cx="0" cy="0" r="1" gradientUnits="userSpaceOnUse" gradientTransform="translate(90.5 533.914) rotate(90) scale(280.914 47.5)">
<stop offset="0.0760415" stop-opacity="0"/>
<stop offset="0.58125"/>
</radialGradient>
<linearGradient id="paint5_linear_77_11" x1="989" y1="516.027" x2="994.5" y2="736.027" gradientUnits="userSpaceOnUse">
<stop stop-color="#8D472F"/>
<stop offset="1" stop-color="#5E2210"/>
</linearGradient>
<radialGradient id="paint6_angular_77_11" cx="0" cy="0" r="1" gradientUnits="userSpaceOnUse" gradientTransform="translate(988.75 539.748) rotate(90) scale(286.748 46.75)">
<stop offset="0.367708"/>
<stop offset="0.981088" stop-opacity="0"/>
</radialGradient>
<radialGradient id="paint7_radial_77_11" cx="0" cy="0" r="1" gradientUnits="userSpaceOnUse" gradientTransform="translate(437.452 315.452) rotate(59.6485) scale(118.836)">
<stop stop-color="#FF9774"/>
<stop offset="1" stop-color="#FF9774"/>
</radialGradient>
<radialGradient id="paint8_radial_77_11" cx="0" cy="0" r="1" gradientUnits="userSpaceOnUse" gradientTransform="translate(642.452 315.452) rotate(59.6485) scale(118.836)">
<stop stop-color="#FF9774"/>
<stop offset="1" stop-color="#FF9774"/>
</radialGradient>
</defs>
</svg>
